# xmcd
#
# Track frame offsets: 
#        150
#        11744
#        23018
#        36576
#        48780
#        63725
#        75916
#        86719
#        96430
#        108729
#        132622
#        156748
#        173570
#        193910
#        204801
#
# Disc length: 2925 seconds
#
# Revision: 0
# Processed by: cddbd v1.5.2PL0 Copyright (c) Steve Scherf et al.
# Submitted via: ExactAudioCopy v0.99pb5
#
DISCID=d00b6b0f
DTITLE=Various Artist - Tom Waits: Step Right Up (Mojo 200 Cover CD)
DYEAR=2010
DGENRE=Blues
TTITLE0=Sixteen Tons - Tennessee Ernie Ford
TTITLE1=John The Revelator - Son House
TTITLE2=Ramblin' Man - Hank Williams
TTITLE3=Just Walkin' In The Rain - The Prisonaires
TTITLE4=Drown In My Own Tear - Ray Charles
TTITLE5=Honey In The Rock - Blind Mamie Forehand
TTITLE6=Let's Go, Let's Go, Let's Go - Hank Ballard and The Midnighters
TTITLE7=No More Auction Block - Paul Robeson
TTITLE8=Dorothy Mae - Howlin' Wolf
TTITLE9=Sylvie - Harry Belafonte
TTITLE10=I Was Young When I Left Home - Bob Dylan
TTITLE11=Jesus' Blood Never Failed Me Yet - Gavin Bryars (with Tom Wai
TTITLE11=ts)
TTITLE12=Ball 'N' Chain - Big Mama Thornton
TTITLE13=Ich Bin Von Kopf Bis Fuss Auf Liebe Eingestellt (Falling In L
TTITLE13=ove Again) - William S. Burroughs
TTITLE14=When You Wish Upon A Star - Cliff Edwards
EXTD=
EXTT0=
EXTT1=
EXTT2=
EXTT3=
EXTT4=
EXTT5=
EXTT6=
EXTT7=
EXTT8=
EXTT9=
EXTT10=
EXTT11=
EXTT12=
EXTT13=
EXTT14=
PLAYORDER=
